<!-- icon666.com - MILLIONS OF FREE VECTOR ICONS --><svg version="1.1" id="Capa_1" xmlns="http://www.w3.org/2000/svg" xmlns:xlink="http://www.w3.org/1999/xlink" x="0px" y="0px" viewBox="0 0 512.001 512.001" style="enable-background:new 0 0 512.001 512.001;" xml:space="preserve"><path style="fill:#9B622F;" d="M126.804,277.741l-25.57-24.523c-12.015-10.622-29.488-12.338-43.34-4.258l-19.085,11.133 c-8.285,4.833-18.201,6.023-27.394,3.287l-8.504-2.531c-3.024-0.9-3.917-4.75-1.599-6.89l12.997-11.997 c6.154-5.681,10.732-12.858,13.288-20.834l1.088-3.395c7.319-22.836,30.23-36.895,53.905-33.076l4.695,0.757 c13.074,2.109,26.479,0.349,38.566-5.063l7.557-3.384c44.028-19.714,94.17-20.729,138.96-2.813l36.231,14.492h82.933 c66.533,0,120.468,53.935,120.468,120.468v7.677c0,1.48-2.08,1.806-2.533,0.397l-2.728-8.492 c-16.503-51.371-64.286-86.209-118.243-86.209h-61.671c-6.347,0-11.493,5.146-11.493,11.493l0,0 c0,10.441-3.616,20.561-10.232,28.638l0,0c-6.617,8.077-10.232,18.197-10.232,28.638v55.416c0,2.162-1.68,3.915-3.753,3.915h-9.172 H271.87h-19.221v-3.134c0-6.835,5.541-12.375,12.375-12.375h3.012c0-35.411-27.036-57.964-58.531-57.964h-0.952 c-26.175,0-56.272,18.947-56.272,61.513v8.045c0,2.162-1.68,3.915-3.753,3.915h-5.255h-12.717h-16.578v-3.134 c0-6.835,5.541-12.375,12.375-12.375h0.451L126.804,277.741"></path><g><path style="fill:#995A26;" d="M67.332,184.657l4.695,0.757c6.129,0.989,12.33,1.116,18.434,0.426 c-1.061-0.12-2.12-0.256-3.177-0.426l-4.695-0.757c-5.215-0.841-10.393-0.813-15.375-0.016 C67.254,184.647,67.293,184.651,67.332,184.657z"></path><path style="fill:#995A26;" d="M42.636,248.96l-19.085,11.133c-3.094,1.805-6.416,3.101-9.843,3.875 c8.528,1.916,17.5,0.559,25.1-3.875l19.085-11.133c3.497-2.04,7.226-3.451,11.038-4.257 C60.141,242.875,50.767,244.217,42.636,248.96z"></path><path style="fill:#995A26;" d="M257.111,174.154l25.707,10.283c6.952,2.781,14.371,4.209,21.858,4.209h3.923l-36.231-14.492 c-23.704-9.482-48.907-13.658-73.91-12.569C218.388,162.425,238.225,166.6,257.111,174.154z"></path><path style="fill:#995A26;" d="M391.532,188.646h-15.257c56.437,0,103.802,38.811,116.88,91.198 c5.653,8.853,10.262,18.51,13.585,28.853l2.728,8.492c0.453,1.409,2.533,1.083,2.533-0.397v-7.677 C512,242.582,458.065,188.646,391.532,188.646z"></path><path style="fill:#995A26;" d="M300.075,233.98c0,10.442-3.616,20.561-10.232,28.638c-6.617,8.077-10.232,18.197-10.232,28.638 v55.416c0,2.162-1.68,3.915-3.753,3.915h6.086h9.171c2.073,0,3.753-1.753,3.753-3.915v-55.416c0-10.441,3.616-20.561,10.232-28.638 l0,0c6.617-8.077,10.232-18.197,10.232-28.638c0-6.347,5.146-11.493,11.493-11.493h-15.257 C305.22,222.487,300.075,227.633,300.075,233.98z"></path><path style="fill:#995A26;" d="M194.247,277.114h-0.952c-26.175,0-56.273,18.947-56.273,61.514v8.045 c0,2.162-1.68,3.915-3.753,3.915h10.002h5.255c2.073,0,3.753-1.753,3.753-3.915v-8.045c0-38.875,25.102-58.039,49.395-61.073 C199.234,277.273,196.757,277.114,194.247,277.114z"></path></g><circle style="fill:#3D3E49;" cx="52.12" cy="223.29" r="8.324"></circle><path style="fill:#BA7D3C;" d="M90.447,181.306c-1.003-1.028-3.563-3.652-7.638-3.838c-4.72-0.215-7.889,3.004-8.415,3.556 c0,0-4.227,6.119-6.574,9.818c-0.888,1.399-0.612,3.236,0.643,4.318l13.105,11.303c1.024,0.883,2.486,1.078,3.686,0.455 c3.508-1.822,10.028-6.567,9.344-16.465C94.36,187.011,92.857,183.776,90.447,181.306z"></path><path style="fill:#9B622F;" d="M85.286,188.333c-0.692-0.709-2.458-2.52-5.269-2.648c-3.257-0.149-5.443,2.072-5.806,2.453 c0,0-2.917,4.221-4.536,6.774c-0.612,0.965-0.422,2.232,0.444,2.979l9.042,7.798c0.706,0.609,1.715,0.744,2.543,0.314 c2.42-1.257,6.919-4.53,6.447-11.359C87.986,192.269,86.949,190.037,85.286,188.333z"></path><path style="fill:#CE9D6F;" d="M120.894,223.287c-5.137-21.64-28.768-11.923-33.905-8.324c-5.137,3.598-16.781,18.662-46.577,31.676 c-14.629,6.39-23.222,12.445-28.189,16.959c8.964,2.434,18.542,1.187,26.586-3.505l19.085-11.133 c13.852-8.081,31.325-6.364,43.34,4.258C101.233,253.218,126.031,244.926,120.894,223.287z"></path><path style="fill:#3D3E49;" d="M25.343,260.68c-1.027-4.623-5.651-4.281-7.021-10.617c-1.37-6.336,4.472-18.452,4.472-18.452 l-0.014-0.013c-2.328,3.811-5.164,7.309-8.472,10.364L1.311,253.959c-2.318,2.14-1.425,5.99,1.599,6.89l8.504,2.531 c4.355,1.296,8.871,1.701,13.3,1.265C25.29,263.115,25.575,261.723,25.343,260.68z"></path><g><path style="fill:#CE9D6F;" d="M439.874,198.748c-4.68-2.053-9.514-3.817-14.483-5.27l-11.195,30.824 c-0.099,0.274-0.179,0.55-0.246,0.827c5.061,1.059,10.018,2.434,14.856,4.095L439.874,198.748z"></path><path style="fill:#CE9D6F;" d="M406.076,190.348c0.032-0.275,0.048-0.549,0.051-0.82c-4.785-0.578-9.654-0.882-14.595-0.882h-0.773 l-3.88,32.94c-0.036,0.303-0.048,0.604-0.049,0.902h1.666c4.62,0,9.189,0.274,13.702,0.773L406.076,190.348z"></path><path style="fill:#CE9D6F;" d="M469.622,217.391c-3.912-3.334-8.04-6.422-12.36-9.24c-0.048,0.069-0.101,0.132-0.147,0.202 l-16.132,24.812c-0.161,0.248-0.302,0.502-0.431,0.76c4.676,2.161,9.203,4.607,13.56,7.32L469.622,217.391z"></path><path style="fill:#CE9D6F;" d="M506.785,273.967c-1.596-5.239-3.54-10.326-5.803-15.236l-14.282,11.94 c3.149,4.066,6.051,8.346,8.694,12.819L506.785,273.967z"></path><path style="fill:#CE9D6F;" d="M477.824,260.426l16.649-13.918c-2.688-4.411-5.657-8.631-8.872-12.645 c-0.107,0.081-0.217,0.155-0.321,0.242L467.342,249.1c-0.335,0.28-0.633,0.587-0.908,0.908 C470.438,253.236,474.24,256.717,477.824,260.426z"></path><polygon style="fill:#CE9D6F;" points="344.3,188.646 328.888,188.646 328.888,188.647 328.888,222.487 344.3,222.487 344.3,188.647 "></polygon><polygon style="fill:#CE9D6F;" points="374.419,188.646 359.008,188.646 359.008,188.647 359.008,222.487 374.419,222.487 374.419,188.647 "></polygon></g></svg>